<?xml version="1.0" encoding="UTF-8"?>
<svg version="1.1" xmlns="http://www.w3.org/2000/svg" width="375" height="375">
<path d="M0 0 C123.75 0 247.5 0 375 0 C375 123.75 375 247.5 375 375 C251.25 375 127.5 375 0 375 C0 251.25 0 127.5 0 0 Z " fill="#FFFFFF" transform="translate(0,0)"/>
<path d="M0 0 C6.93 0 13.86 0 21 0 C21 6.6 21 13.2 21 20 C27.93 20 34.86 20 42 20 C42 26.93 42 33.86 42 41 C48.93 41 55.86 41 63 41 C63 47.93 63 54.86 63 62 C76.53 62 90.06 62 104 62 C104 55.07 104 48.14 104 41 C110.93 41 117.86 41 125 41 C125 34.07 125 27.14 125 20 C131.93 20 138.86 20 146 20 C146 13.4 146 6.8 146 0 C152.93 0 159.86 0 167 0 C167 13.53 167 27.06 167 41 C160.07 41 153.14 41 146 41 C146 47.93 146 54.86 146 62 C139.07 62 132.14 62 125 62 C125 68.93 125 75.86 125 83 C118.4 83 111.8 83 105 83 C105.03958259 89.5370285 105.03958259 89.5370285 105.09008789 96.07397461 C105.09258545 96.88358643 105.09508301 97.69319824 105.09765625 98.52734375 C105.10289307 99.35999756 105.10812988 100.19265137 105.11352539 101.05053711 C105 103 105 103 104 104 C100.98191937 104.101137 97.98719487 104.13968909 94.96875 104.1328125 C94.06249878 104.13376923 93.15624756 104.13472595 92.22253418 104.13571167 C90.30248953 104.13639353 88.38244259 104.13453882 86.46240234 104.13037109 C83.51264296 104.12502292 80.56303586 104.13031588 77.61328125 104.13671875 C75.75260383 104.13605797 73.8919265 104.13477681 72.03125 104.1328125 C70.69846008 104.13584885 70.69846008 104.13584885 69.33874512 104.13894653 C63.11494988 104.11494988 63.11494988 104.11494988 62 103 C61.91330568 101.5112814 61.89296506 100.018555 61.90234375 98.52734375 C61.90484131 97.71773193 61.90733887 96.90812012 61.90991211 96.07397461 C61.91901611 95.03893799 61.92812012 94.00390137 61.9375 92.9375 C61.958125 89.658125 61.97875 86.37875 62 83 C55.4 83 48.8 83 42 83 C42 76.07 42 69.14 42 62 C35.07 62 28.14 62 21 62 C21 55.07 21 48.14 21 41 C14.07 41 7.14 41 0 41 C0 27.47 0 13.94 0 0 Z " fill="#000000" transform="translate(104,84)"/>
<path d="M0 0 C4.9190625 -0.0309375 4.9190625 -0.0309375 9.9375 -0.0625 C10.97253662 -0.071604 12.00757324 -0.08070801 13.07397461 -0.09008789 C14.28839233 -0.09383423 14.28839233 -0.09383423 15.52734375 -0.09765625 C16.77632446 -0.10551147 16.77632446 -0.10551147 18.05053711 -0.11352539 C20 0 20 0 21 1 C21.08871273 4.02977804 21.1151935 7.03667022 21.09765625 10.06640625 C21.09553383 11.42934059 21.09553383 11.42934059 21.09336853 12.81980896 C21.08775193 15.73407221 21.07519665 18.64825981 21.0625 21.5625 C21.05748714 23.53320202 21.05292386 25.50390524 21.04882812 27.47460938 C21.03862617 32.31645914 21.01905409 37.15814447 21 42 C14.07 42 7.14 42 0 42 C0 48.93 0 55.86 0 63 C-6.93 63 -13.86 63 -21 63 C-21 69.93 -21 76.86 -21 84 C-27.93 84 -34.86 84 -42 84 C-42 90.93 -42 97.86 -42 105 C-55.53 105 -69.06 105 -83 105 C-83 98.07 -83 91.14 -83 84 C-89.93 84 -96.86 84 -104 84 C-104 77.07 -104 70.14 -104 63 C-110.93 63 -117.86 63 -125 63 C-125 56.07 -125 49.14 -125 42 C-131.93 42 -138.86 42 -146 42 C-146 28.47 -146 14.94 -146 1 C-139.07 1 -132.14 1 -125 1 C-125 7.6 -125 14.2 -125 21 C-118.07 21 -111.14 21 -104 21 C-104 27.93 -104 34.86 -104 42 C-97.07 42 -90.14 42 -83 42 C-83 48.93 -83 55.86 -83 63 C-69.47 63 -55.94 63 -42 63 C-42 56.07 -42 49.14 -42 42 C-35.07 42 -28.14 42 -21 42 C-21 35.07 -21 28.14 -21 21 C-14.07 21 -7.14 21 0 21 C0 14.07 0 7.14 0 0 Z " fill="#000000" transform="translate(250,187)"/>
</svg>
